<?xml version="1.0" standalone="no"?>
<!DOCTYPE svg PUBLIC "-//W3C//DTD SVG 20010904//EN"
 "http://www.w3.org/TR/2001/REC-SVG-20010904/DTD/svg10.dtd">
<svg version="1.0" xmlns="http://www.w3.org/2000/svg"
 width="450.000000pt" height="450.000000pt" viewBox="0 0 450.000000 450.000000"
 preserveAspectRatio="xMidYMid meet">
<metadata>
Created by potrace 1.16, written by Peter Selinger 2001-2019
</metadata>
<g transform="translate(0.000000,450.000000) scale(0.100000,-0.100000)"
fill="#000000" stroke="none">
<path d="M720 1315 c0 -3 10 -25 21 -48 21 -41 21 -42 1 -24 -15 14 -22 15
-28 6 -4 -7 -3 -10 4 -6 5 4 22 -13 37 -38 14 -25 30 -43 35 -40 5 3 12 0 16
-6 5 -8 3 -9 -6 -4 -8 5 -11 3 -8 -6 3 -8 10 -13 15 -12 5 1 9 -6 10 -15 3
-56 66 -153 86 -133 5 5 15 7 22 4 22 -8 38 33 23 61 -32 58 -175 245 -196
255 -26 12 -32 13 -32 6z"/>
<path d="M917 975 c5 -14 3 -16 -8 -10 -8 5 -11 5 -6 -1 5 -5 12 -9 15 -9 14
0 32 -17 28 -24 -3 -4 11 -23 32 -42 l37 -34 -30 35 c-17 19 11 -3 60 -50 450
-419 1044 -573 1650 -429 46 10 91 16 101 13 16 -5 17 -4 4 6 -12 9 -9 10 15
6 21 -5 26 -4 16 3 -12 8 -9 11 12 17 16 3 26 8 24 11 -2 2 -44 -8 -93 -22
-48 -14 -93 -24 -98 -21 -6 2 6 7 27 11 20 4 37 11 37 15 0 8 -77 30 -107 30
-10 0 -31 7 -47 15 -24 13 -43 14 -110 5 -356 -45 -773 40 -1108 226 -43 23
-78 41 -78 38 0 -11 -120 78 -175 130 -69 65 -97 76 -125 51 -19 -17 -21 -16
-50 15 -17 18 -27 24 -23 15z"/>
</g>
</svg>
